<?xml version="1.0" encoding="UTF-8" standalone="no"?>
<svg
   xmlns:dc="http://purl.org/dc/elements/1.1/"
   xmlns:cc="http://creativecommons.org/ns#"
   xmlns:rdf="http://www.w3.org/1999/02/22-rdf-syntax-ns#"
   xmlns:svg="http://www.w3.org/2000/svg"
   xmlns="http://www.w3.org/2000/svg"
   xmlns:sodipodi="http://sodipodi.sourceforge.net/DTD/sodipodi-0.dtd"
   xmlns:inkscape="http://www.inkscape.org/namespaces/inkscape"
   version="1.1"
   id="Capa_1"
   x="0px"
   y="0px"
   viewBox="0 0 1200 1200"
   enable-background="new 0 0 1200 1200"
   xml:space="preserve"
   sodipodi:docname="estetosc--pio-de-hospital-monocrom--tico-by-Vexels.svg"
   inkscape:version="1.0.1 (3bc2e813f5, 2020-09-07)"><metadata
   id="metadata270"><rdf:RDF><cc:Work
       rdf:about=""><dc:format>image/svg+xml</dc:format><dc:type
         rdf:resource="http://purl.org/dc/dcmitype/StillImage" /></cc:Work></rdf:RDF></metadata><defs
   id="defs268"><filter
     style="color-interpolation-filters:sRGB;"
     inkscape:label="Drop Shadow"
     id="filter1918"><feFlood
       flood-opacity="1"
       flood-color="rgb(0,0,0)"
       result="flood"
       id="feFlood1908" /><feComposite
       in="flood"
       in2="SourceGraphic"
       operator="in"
       result="composite1"
       id="feComposite1910" /><feGaussianBlur
       in="composite1"
       stdDeviation="3.5"
       result="blur"
       id="feGaussianBlur1912" /><feOffset
       dx="2"
       dy="2"
       result="offset"
       id="feOffset1914" /><feComposite
       in="SourceGraphic"
       in2="offset"
       operator="over"
       result="composite2"
       id="feComposite1916" /></filter></defs><sodipodi:namedview
   pagecolor="#ffffff"
   bordercolor="#666666"
   borderopacity="1"
   objecttolerance="10"
   gridtolerance="10"
   guidetolerance="10"
   inkscape:pageopacity="0"
   inkscape:pageshadow="2"
   inkscape:window-width="1326"
   inkscape:window-height="704"
   id="namedview266"
   showgrid="false"
   inkscape:zoom="0.38900486"
   inkscape:cx="609.89508"
   inkscape:cy="556.68411"
   inkscape:window-x="40"
   inkscape:window-y="27"
   inkscape:window-maximized="1"
   inkscape:current-layer="Capa_1" />
<g
   id="g263"
   style="fill:#1a1a1c;fill-opacity:1;filter:url(#filter1918)">
	<path
   fill="#505B95"
   d="M422.35,103.75h-39.736c-10.72,0-19.411-8.69-19.411-19.411V69.411c0-10.72,8.69-19.411,19.411-19.411   h39.736c10.72,0,19.411,8.69,19.411,19.411v14.928C441.761,95.059,433.07,103.75,422.35,103.75z"
   id="path249"
   style="fill:#1a1a1c;fill-opacity:1" />
	<path
   fill="#505B95"
   d="M347.329,67.007c-0.097,0.788-0.147,1.59-0.147,2.404v14.928c0,2.086,0.329,4.094,0.938,5.977   C247.778,92.835,295.381,264.4,299.34,278.092c-4.37-1.639-9.251-2.104-14.192-1.075h0c-4.652,0.969-8.767,3.154-12.059,6.17   C266.139,258.505,216.812,68.307,347.329,67.007z"
   id="path251"
   style="fill:#1a1a1c;fill-opacity:1" />
	<path
   fill="#505B95"
   d="M562.986,103.75h39.736c10.72,0,19.411-8.69,19.411-19.411V69.411c0-10.72-8.69-19.411-19.411-19.411   h-39.736c-10.72,0-19.411,8.69-19.411,19.411v14.928C543.575,95.059,552.265,103.75,562.986,103.75z"
   id="path253"
   style="fill:#1a1a1c;fill-opacity:1" />
	<path
   fill="#505B95"
   d="M638.006,67.007c0.097,0.788,0.147,1.59,0.147,2.404v14.928c0,2.086-0.329,4.094-0.938,5.977   c100.342,2.519,52.739,174.084,48.779,187.776c4.37-1.639,9.251-2.104,14.192-1.075l0,0c4.652,0.969,8.767,3.154,12.059,6.17   C719.197,258.505,768.524,68.307,638.006,67.007z"
   id="path255"
   style="fill:#1a1a1c;fill-opacity:1" />
	<path
   fill="#505B95"
   d="M692.177,293.039c-14.69-3.061-28.849,7.091-30.621,21.99c-8.032,67.474-37.594,236.763-133.953,270.182   c-7.506-11.36-20.375-18.905-34.934-18.905h-0.002c-14.559,0-27.427,7.544-34.936,18.905   c-96.358-33.42-125.919-202.707-133.952-270.182c-1.774-14.9-15.932-25.051-30.621-21.99c-12.667,2.639-21.353,14.295-20.283,27.19   c5.908,71.082,35.675,286.842,180.299,320.262c5.717,16.332,21.275,28.147,39.493,28.147h0.002   c18.218,0,33.776-11.815,39.493-28.147c144.624-33.42,174.391-249.18,180.299-320.262   C713.53,307.334,704.845,295.679,692.177,293.039z"
   id="path257"
   style="fill:#1a1a1c;fill-opacity:1" />
	<path
   fill="#505B95"
   d="M869.433,667.604c-39.962,0-72.355,32.394-72.355,72.355c0,39.961,32.393,72.355,72.355,72.355   c39.96,0,72.355-32.394,72.355-72.355C941.788,699.998,909.393,667.604,869.433,667.604z M869.433,788.827   c-26.989,0-48.868-21.878-48.868-48.867c0-26.988,21.879-48.867,48.868-48.867c26.987,0,48.866,21.879,48.866,48.867   C918.299,766.948,896.42,788.827,869.433,788.827z"
   id="path259"
   style="fill:#1a1a1c;fill-opacity:1" />
	<path
   fill="#505B95"
   d="M782.786,724.158c-1.133,5.086-1.731,10.374-1.731,15.801c0,5.602,0.637,11.056,1.844,16.292   c-21.252,1.514-44.627,11.435-51.521,36.116c-7.67,27.459,5.155,46.152,26.72,74.377c5.797,7.584,11.789,15.427,17.207,23.739   c30.216,46.34,35.344,93.168,14.836,135.424c-25.984,53.541-79.861,96.415-144.123,114.693   c-22.123,6.294-44.392,9.399-66.034,9.399c-38.708,0-75.445-9.92-105.998-29.278c-55.027-34.867-78.504-104.23-57.092-168.68   c6.896-20.77,16.937-40.152,26.645-58.896c16.288-31.448,31.671-61.149,31.671-94.905c0-34.848-0.031-62.618,0.54-88.951   c0.199-9.212,0.259-18.901,0.425-28.038c5.068,2.19,10.646,3.406,16.493,3.406h0c5.489,0,10.739-1.07,15.554-3.013   c-0.167,9.243-0.236,19.028-0.437,28.337c-0.567,26.16-0.532,53.759-0.532,88.258c0,41.56-17.926,76.173-35.262,109.643   c-9.56,18.451-18.587,35.88-24.689,54.257c-16.761,50.458,1.263,104.539,43.832,131.513   c39.936,25.307,93.196,31.175,146.118,16.127c55.622-15.822,101.996-52.406,124.061-97.866   c15.552-32.039,11.226-67.008-12.849-103.933c-4.768-7.311-10.139-14.34-15.826-21.787c-20.848-27.287-44.482-58.211-32.121-102.45   C711.525,744.34,747.891,726.028,782.786,724.158z"
   id="path261"
   style="fill:#1a1a1c;fill-opacity:1" />
</g>
</svg>
