<?xml version="1.0" encoding="UTF-8" standalone="no"?>
<svg
   xmlns:dc="http://purl.org/dc/elements/1.1/"
   xmlns:cc="http://creativecommons.org/ns#"
   xmlns:rdf="http://www.w3.org/1999/02/22-rdf-syntax-ns#"
   xmlns:svg="http://www.w3.org/2000/svg"
   xmlns="http://www.w3.org/2000/svg"
   xmlns:xlink="http://www.w3.org/1999/xlink"
   xmlns:sodipodi="http://sodipodi.sourceforge.net/DTD/sodipodi-0.dtd"
   xmlns:inkscape="http://www.inkscape.org/namespaces/inkscape"
   width="210mm"
   height="297mm"
   viewBox="0 0 210 297"
   version="1.1"
   id="svg16"
   inkscape:version="1.0 (b51213c273, 2020-08-10)"
   sodipodi:docname="doctor_principal.svg">
  <defs
     id="defs10">
    <linearGradient
       id="ac3cc305-f6db-42f4-bbbd-32121ee27a74"
       x1="403.57"
       y1="833.5"
       x2="403.57"
       y2="218.16"
       gradientUnits="userSpaceOnUse">
      <stop
         offset="0"
         stop-color="gray"
         stop-opacity="0.25"
         id="stop395" />
      <stop
         offset="0.54"
         stop-color="gray"
         stop-opacity="0.12"
         id="stop397" />
      <stop
         offset="1"
         stop-color="gray"
         stop-opacity="0.1"
         id="stop399" />
    </linearGradient>
    <linearGradient
       id="ad14f186-b27f-416c-b629-0bafa2f1236e"
       x1="940.67"
       y1="825.72"
       x2="940.67"
       y2="263.72"
       xlink:href="#ac3cc305-f6db-42f4-bbbd-32121ee27a74"
       gradientTransform="translate(-90.87004,-54.94003)" />
    <linearGradient
       inkscape:collect="always"
       xlink:href="#ac3cc305-f6db-42f4-bbbd-32121ee27a74"
       id="linearGradient744"
       gradientUnits="userSpaceOnUse"
       x1="403.57"
       y1="833.5"
       x2="403.57"
       y2="218.16"
       gradientTransform="translate(208.03996,-69.33003)" />
  </defs>
  <sodipodi:namedview
     id="base"
     pagecolor="#ffffff"
     bordercolor="#666666"
     borderopacity="1.0"
     inkscape:pageopacity="0.0"
     inkscape:pageshadow="2"
     inkscape:zoom="0.35"
     inkscape:cx="400"
     inkscape:cy="560"
     inkscape:document-units="mm"
     inkscape:current-layer="layer1"
     inkscape:document-rotation="0"
     showgrid="false"
     inkscape:window-width="1326"
     inkscape:window-height="704"
     inkscape:window-x="40"
     inkscape:window-y="27"
     inkscape:window-maximized="1" />
  <metadata
     id="metadata13">
    <rdf:RDF>
      <cc:Work
         rdf:about="">
        <dc:format>image/svg+xml</dc:format>
        <dc:type
           rdf:resource="http://purl.org/dc/dcmitype/StillImage" />
        <dc:title />
      </cc:Work>
    </rdf:RDF>
  </metadata>
  <g
     inkscape:label="Layer 1"
     inkscape:groupmode="layer"
     id="layer1">
    <g
       id="g319"
       transform="matrix(0.26458333,0,0,0.26458333,-73.22238,38.878253)">
      <ellipse
         cx="622.65997"
         cy="755.94995"
         rx="97.440002"
         ry="15.65"
         fill="#6c63ff"
         opacity="0.1"
         id="ellipse407" />
      <path
         d="m 682,180.6 c -13.58,-0.48 -27.08,-4.78 -39.29,-11.42 -23.35,-12.7 -42,-32.31 -62.84,-48.86 -43.3,-34.47 -97,-55.27 -152.09,-60.43 V 242.81 H 737.23 L 738,242 Z m 28.19,-5 29.89,32.8 V 167 c -10.01,1.24 -18.78,4.19 -29.85,8.56 z m 29.89,512.13 v -148.3 h -63.69 c -0.17,-0.63 -0.34,-1.27 -0.54,-1.91 0.19,0.64 0.35,1.28 0.53,1.91 H 427.82 v 107.25 c 2.36,1.75 4.69,3.59 7,5.46 v 0 c 2.49,2 4.95,4.11 7.42,6.18 l 2.49,2.06 c 1.19,1 2.39,2 3.6,2.94 2.4,1.94667 4.82333,3.86667 7.27,5.76 1.21,1 2.45,1.9 3.68,2.84 19.52711,14.9297 40.12603,28.40272 61.63,40.31 4.82,2.66667 9.68333,5.27 14.59,7.81 3.27,1.67 6.56,3.33 9.86,4.94 4.96,2.42 9.96,4.75333 15,7 v 0 c 46.46636,20.85841 95.60112,35.17143 146,42.53 11.19333,1.65333 22.43,2.95333 33.71,3.9 v -90.69 h 1 z M 427.82,247.08 v 145.47 h 312.3 V 247.08 Z m 0,149.74 v 138.34 h 312.3 V 396.82 Z m 336.54,-230 V 213 l 38.15,-41.86 c -12.64,-2.04 -25.35667,-3.49667 -38.15,-4.37 z m 0,230.05 v 138.29 h 303.75 V 396.82 Z M 1067,698.71 1068.07,539.43 H 764.36 V 780 c 19.56503,0.82193 39.16014,0.58826 58.7,-0.7 v 0 h 0.34 c 9.33333,-0.58667 18.62333,-1.44 27.87,-2.56 h 0.21 c 49.33062,-5.74122 97.56677,-18.61205 143.2,-38.21 M 886.33,193.96 c -1.58,-0.6 -3.16,-1.21 -4.75,-1.8 -16.76914,-6.19272 -33.90517,-11.34255 -51.31,-15.42 l -58.38,64.07 v 0 l -1.12,1.19 0.75,0.82 H 979.3 c -28.93791,-19.91952 -60.13571,-36.33747 -92.94,-48.91 z m 99.06,53.17 H 768.62 l -4.26,3.9 v 141.52 h 37.34 0.06 v 0 h 266.39 V 324 c -24.0977,-29.14421 -51.9113,-55.00443 -82.73,-76.92 z"
         fill="#6c63ff"
         opacity="0.1"
         id="path417"
         transform="translate(-47.24,-58.63)"
         sodipodi:nodetypes="ccccccccccccccccccccsscccccccssscccccccccccccccccccccccccccccscccccccccccccccccccccccccc" />
      <path
         d="m 474.92996,483.58996 h 76.31 v 115 a 199.11,199.11 0 0 1 -27.45,5.83 l -2.28,0.28 c -1.12,0.13 -2.23,0.24 -3.33,0.35 -1.1,0.11 -2.24,0.19 -3.35,0.26 h -0.35 c -0.48,0 -1,0.06 -1.47,0.07 h -0.51 c -0.6,0 -1.2,0.06 -1.8,0.08 v 0 c -0.85,0.05 -1.7,0.06 -2.57,0.07 -0.37,0 -0.72,0 -1.09,0 -0.86,0 -1.71,0 -2.57,0 h -1.89 c -0.51,0 -1,0 -1.53,0 l -1.93,-0.07 c -1,0 -2.08,-0.11 -3.12,-0.18 v 0 l -1.92,-0.14 -2.39,-0.22 c -1.68,-0.15 -3.35,-0.34 -5,-0.57 l -2,-0.28 -1,-0.14 c -1.67,-0.26 -3.32,-0.54 -5,-0.86 -1.23,-0.21 -2.45,-0.47 -3.69,-0.72 z"
         fill="#6c63ff"
         opacity="0.1"
         id="path427" />
      <rect
         x="629.96002"
         y="194.56"
         width="62.919998"
         height="139.35001"
         fill="#6c63ff"
         opacity="0.1"
         id="rect429" />
      <polygon
         points="546.93,416.86 546.93,452.06 629.96,452.06 629.96,338.19 692.89,338.19 692.89,476.53 380.58,476.53 380.58,416.86 "
         fill="#6c63ff"
         opacity="0.1"
         id="polygon431" />
      <path
         d="m 741.12,687.76 h -1 v 90.75 q -16.9,-1.43 -33.7,-3.89 A 550.87,550.87 0 0 1 560.36,732 q -20.13,-9.06 -39.44,-19.78 a 503.26,503.26 0 0 1 -61.64,-40.31 q -7.36,-5.64 -14.53,-11.54 c -3.31,-2.73 -6.6,-5.53 -9.93,-8.25 -2.31,-1.87 -4.64,-3.71 -7,-5.47 V 539.44 h 248.55 c -0.17,-0.64 -0.34,-1.28 -0.52,-1.91 0.19,0.63 0.37,1.27 0.54,1.91 h 63.73 V 687.7 c 0.34,0.01 0.67,0.04 1,0.06 z"
         transform="translate(-47.24,-58.63)"
         fill="#6c63ff"
         opacity="0.1"
         id="path433" />
      <path
         d="m 904.22,242.81 h -41 v -12.74 h 18.38 v -37.95 q 2.39,0.87 4.76,1.79 v 36.16 h 17.86 z"
         transform="translate(-47.24,-58.63)"
         fill="#6c63ff"
         opacity="0.1"
         id="path435" />
      <path
         d="M 1003,392.55 H 801.72 c 0,0 0,0 0.07,0.05 l -0.09,-0.05 H 764.36 V 253.2 h 10.58 v 103 h 48.35 v -61 h 39.94 v -48.11 h 41 v 48.15 h 39.94 v 61 H 1003 Z"
         transform="translate(-47.24,-58.63)"
         fill="#6c63ff"
         opacity="0.1"
         id="path437" />
      <rect
         x="764.10999"
         y="238.05997"
         width="33.709999"
         height="43.689999"
         fill="#6c63ff"
         opacity="0.1"
         id="rect445" />
      <rect
         x="764.10999"
         y="328.61996"
         width="33.709999"
         height="10.06"
         fill="#6c63ff"
         opacity="0.1"
         id="rect447" />
      <rect
         x="764.10999"
         y="342.94998"
         width="33.709999"
         height="29.35"
         fill="#6c63ff"
         opacity="0.1"
         id="rect449" />
      <rect
         x="764.10999"
         y="419.17999"
         width="33.709999"
         height="43.689999"
         fill="#6c63ff"
         opacity="0.1"
         id="rect451" />
      <rect
         x="764.10999"
         y="509.73996"
         width="33.709999"
         height="43.689999"
         fill="#6c63ff"
         opacity="0.1"
         id="rect453" />
      <path
         d="m 797.80998,633.82997 c 0.34,0 0.67,0 1,0.06 h -1 v 10.15 h -33.7 v -43.74 h 33.7 z"
         fill="#6c63ff"
         opacity="0.1"
         id="path455" />
      <path
         d="m 797.80998,690.83997 v 33.75 q -16.9,-1.43 -33.7,-3.89 v -29.86 z"
         fill="#6c63ff"
         opacity="0.1"
         id="path457" />
      <rect
         x="495.41995"
         y="465.89996"
         width="144.47"
         height="3.21"
         fill="#6c63ff"
         opacity="0.1"
         id="rect459" />
      <rect
         x="495.41995"
         y="473.37994"
         width="144.47"
         height="12.3"
         fill="#6c63ff"
         opacity="0.1"
         id="rect461" />
      <rect
         x="495.41995"
         y="525.99994"
         width="144.47"
         height="19.780001"
         fill="#6c63ff"
         opacity="0.1"
         id="rect463" />
      <path
         d="m 639.87996,586.09997 v 19.78 h -113 q -7.36,-5.62 -14.54,-11.54 c -3.31,-2.73 -6.59,-5.53 -9.93,-8.24 z"
         fill="#6c63ff"
         opacity="0.1"
         id="path465" />
      <path
         d="m 639.87996,646.18997 v 19.76 h -11.93 q -20.11,-9.07 -39.43,-19.79 z"
         fill="#6c63ff"
         opacity="0.1"
         id="path467" />
      <rect
         x="495.41995"
         y="420.03995"
         width="28.440001"
         height="28.440001"
         fill="#6c63ff"
         opacity="0.1"
         id="rect477" />
      <rect
         x="495.41995"
         y="486.09995"
         width="28.440001"
         height="28.440001"
         fill="#6c63ff"
         opacity="0.1"
         id="rect479" />
      <rect
         x="495.41995"
         y="552.15997"
         width="28.440001"
         height="28.440001"
         fill="#6c63ff"
         opacity="0.1"
         id="rect481" />
      <path
         d="m 429.77996,585.26996 c 0.91,0.52 1.84,1 2.78,1.52 v -0.5 h 8 v 4.5 l 1.7,0.79 v -5.29 h 8 v 8.65 a 2.5,2.5 0 0 0 0.48,0.18 v -9.85 z"
         fill="#6c63ff"
         opacity="0.1"
         id="path515" />
      <path
         d="m 801.72,392.55 v 0 h 0.06 z m -61.6,295.14 v 0 h 1 z M 675.85,537.52 c 0.19,0.64 0.35,1.28 0.53,1.91 v 0 c -0.16,-0.63 -0.33,-1.27 -0.53,-1.91 z m 125.87,-145 v 0 h 0.06 z m -61.6,295.17 v 0 h 1 z M 675.85,537.52 c 0.19,0.64 0.35,1.28 0.53,1.91 v 0 c -0.16,-0.63 -0.33,-1.27 -0.53,-1.91 z m 125.87,-145 v 0 h 0.06 z m -61.6,295.14 v 0 h 1 z M 675.85,537.52 c 0.19,0.64 0.35,1.28 0.53,1.91 v 0 c -0.16,-0.63 -0.33,-1.27 -0.53,-1.91 z"
         transform="translate(-47.24,-58.63)"
         fill="#6c63ff"
         opacity="0.1"
         id="path517"
         sodipodi:nodetypes="cccccccccssccccccccccssccccccccccssc" />
      <path
         d="m 716.87996,368.96997 c 0,0 -3.94,-0.55 -3.94,-6.29 0,-5.74 -2.82,-16.46 -2.82,-16.46 v 0 c 0,-0.05 -2.44,-18.67 -5.81,-21.63 -3.37,-2.96 -7.7,-20.34 -7.7,-20.34 0,0 -0.74,-9.43 -2.25,-11.46 -1.51,-2.03 -3.55,-7 -6.56,-14.09 -3.01,-7.09 -15.56,-12 -15.56,-12 0,0 -22.69,-13.16 -29.12,-17.45 v 0 a 9.86,9.86 0 0 1 -1.63,-1.23 c -1.12,-1.47 -6,-1.5 -6,-1.5 -0.51,-3.22 -1,-6.92 -1.16,-10.27 0,-0.36 0,-0.72 -0.05,-1.08 a 34.6,34.6 0 0 0 15.21,-18.82 c 0.12,-0.38 0.22,-0.78 0.33,-1.16 a 3.25,3.25 0 0 0 1.95,-1.76 c 0.58,-1.29 0.59,-2.8 1.31,-4 0.84,-1.42 2.44,-2.18 3.7,-3.25 3.18,-2.7 4,-7.25 3.85,-11.39 -0.1,-3.35 -0.64,-6.73 -0.43,-10.06 l 0.06,-0.84 c 0.06,-0.5 0.13,-1 0.22,-1.48 0.49,-2.48 1.56,-4.82 2.16,-7.28 0.6,-2.46 0.66,-5.23 -0.74,-7.35 -2.05,-3.11 -6.32,-3.73 -10.07,-4.05 -4.25,-0.36 -8.05,0.11 -10.77,-3.42 a 38.39,38.39 0 0 0 -4.28,-5.17 c -0.56,-0.52 -6,-3.84 -6,-4.06 a 24.31,24.31 0 0 0 -16.95,-1.3 c -2.82,0.82 -5.48,2.16 -8.34,2.83 -6.17,1.46 -13.27,-0.12 -18.51,3.41 -2.92,2 -4.67,5.18 -6.31,8.28 q -2,3.83 -4.06,7.65 c -2.21,4.19 -4.46,8.45 -5.39,13.09 a 20.78,20.78 0 0 0 -0.36,3.06 v 0 0.05 c 0,0.37 0,0.74 0,1.11 v 0.47 c 0,0.35 0,0.69 0.06,1 0.06,0.31 0.05,0.41 0.08,0.62 0.03,0.21 0.08,0.68 0.14,1 0.06,0.32 0.18,0.88 0.3,1.32 0.05,0.19 0.12,0.37 0.18,0.55 0.1,0.34 0.22,0.67 0.35,1 0.07,0.17 0.14,0.35 0.22,0.52 0.15,0.35 0.33,0.69 0.51,1 0.08,0.14 0.14,0.27 0.22,0.4 a 13.27,13.27 0 0 0 0.92,1.34 c 2.14,2.67 5.29,4.37 7.62,6.87 0,0.1 0,0.2 0,0.29 0,0.28 0,0.55 0,0.83 a 34.23,34.23 0 0 0 15.58,27.95 c 0,0.38 0.05,0.77 0.07,1.15 a 57.22,57.22 0 0 1 -0.11,8.91 4.2,4.2 0 0 0 -3.32,-1.48 4.79,4.79 0 0 0 -1.28,0.11 l -0.09,-0.07 v 0 0.09 c -2.2,0.54 -4.91,2.83 -7.5,9.34 0,0 -7.88,8.88 -13.88,8.51 -6,-0.37 -21.19,9.24 -21.19,9.24 0,0 -14.82,9.62 -18,19.42 a 136.86,136.86 0 0 1 -6.38,16.28 l -18.32,37.75 v 0 l -3.38,29.95 c 0,0 1.87,13.32 1.5,15.35 -0.37,2.03 7.69,20.34 7.69,20.34 0,0 26.63,46.79 37.51,49.19 l 0.78,-0.55 a 6.38,6.38 0 0 0 1.47,0.55 l 2.24,-1.58 a 24.41,24.41 0 0 1 -0.17,5.28 c -1.5,4.62 0.56,34.77 3.18,40.68 2.62,5.91 1.69,83.4 1.69,83.4 l -0.37,6.84 c 0,0 0,0.22 0.09,0.6 l -0.09,1.62 0.27,0.14 a 19.26,19.26 0 0 1 -0.27,6.51 c -0.94,3 -1.32,11.48 -1.32,11.48 0,0 -7.49,47.88 -3.94,57.5 3.55,9.62 6.57,20.16 6.57,20.16 0,0 3.75,12 0.18,14.05 -3.57,2.05 -13.72,5.49 -11.63,10.49 1.9,4.62 9.11,17 10.18,18.81 l -0.09,0.95 -1.47,15.93 a 20,20 0 0 0 1.69,6.08 c 1.61,3.47 4.74,7.07 10.69,6.68 1,-0.07 2.16,-0.19 3.28,-0.34 10.89,-1.46 24.3,-6.32 24.3,-6.32 a 9.91,9.91 0 0 1 -1.9,-1.57 v 0 a 5.49,5.49 0 0 1 -1.67,-4 c 0.16,-2.9 -5.27,-16.72 -6.62,-20.12 -0.21,-0.49 -0.32,-0.77 -0.32,-0.77 0,0 12.38,-12.94 10.32,-24.41 0,0 -13.7,-8 -9.19,-12.39 4.51,-4.39 12.57,-17 12.57,-17 0,0 0.37,-47.15 0,-54.19 a 58.3,58.3 0 0 1 0.69,-14.63 c 0.15,-0.73 0.33,-1.44 0.52,-2.14 a 130.55,130.55 0 0 0 18.84,1.43 c 2.3,0 4.64,0 7,-0.14 q 0,1 0.09,2.16 c 0.52,11.68 1.49,32.16 2.28,39.77 1.12,10.91 7.31,40.31 7.31,40.31 0,0 -11.81,7.58 2.06,26.26 0,0 0,6.77 -0.92,7.75 v 0 a 84.78,84.78 0 0 0 -2.37,9.76 c -0.58,3.52 -0.82,7.08 0.12,8.93 2.25,4.42 15.75,4.06 15.75,4.06 v 0 l 0.33,-0.06 a 19.35,19.35 0 0 1 14.29,4.31 c 5.13,4.12 24.6,2.31 35.14,1 4.13,-0.52 6.89,-1 6.89,-1 a 4,4 0 0 0 0.14,-1.44 v 0 c -0.11,-2.59 -2.14,-8.27 -15.9,-13.34 0,0 -12.94,-8.7 -12.76,-16.28 h -0.27 -1.5 c 1.09,-0.06 1.79,0 1.79,0 0,0 -5.07,-18.5 -3,-20 2.07,-1.5 -4.13,-22 -4.13,-22 0,0 -3.55,-34.4 -3.74,-36.81 a 21,21 0 0 1 0.93,-6.1 l -0.93,-18.86 c 0,0 -0.18,-6.27 0,-8.31 a 41.5,41.5 0 0 0 -0.43,-5.29 c -0.09,-0.7 -0.18,-1.43 -0.28,-2.15 4.85,-1.23 8,-2.37 8,-2.37 l -0.56,-65.65 c 4.12,-8 4.88,-25.55 4.86,-38 0,-8 -0.36,-13.92 -0.36,-13.92 l 5.63,-9.19 c 0,0 1.3,-11 -0.76,-13.41 -0.91,-1.09 -0.5,-2.22 0.25,-3.15 a 10.46,10.46 0 0 1 1.23,-0.84 c 0,0 -0.06,-0.09 -0.13,-0.22 a 9.94,9.94 0 0 1 1.25,-0.89 c 0,0 -2,-3.1 -0.21,-4.41 1.68,1.14 3.18,2 4.32,2.7 -0.08,0.73 -0.16,1.15 -0.16,1.15 l 0.48,-1 c 1.1,0.62 1.77,1 1.77,1 0,0 8.82,-17.57 8.63,-20.16 -0.19,-2.59 6,-13.5 6,-13.5 0,0 0.75,-5.73 4.13,-8.13 3.38,-2.4 2.62,-19.79 2.62,-19.79 0,0 0.94,-9.06 3.19,-12.76 2.25,-3.7 -2.05,-8.69 -2.05,-8.69 z m -168.76,-7.71 0.17,4.19 c -1,-1.61 -1.72,-2.77 -1.72,-2.77 z"
         fill="url(#ac3cc305-f6db-42f4-bbbd-32121ee27a74)"
         id="path519"
         style="fill:url(#linearGradient744)" />
      <path
         d="m 694.83996,444.40997 -2.16,9.2 c 0,0 -17.3,-8.83 -20.42,-20.05 -3.12,-11.22 5.22,-15.48 5.22,-15.48 l 16.12,6.83 z"
         fill="#ffffff"
         id="path521" />
      <path
         d="m 694.83996,444.40997 -2.16,9.2 c 0,0 -17.3,-8.83 -20.42,-20.05 -3.12,-11.22 5.22,-15.48 5.22,-15.48 l 16.12,6.83 z"
         opacity="0.1"
         id="path523" />
      <path
         d="m 597.74996,757.51997 c 0,0 -16,5.88 -27,6.62 -5.84,0.39 -8.91,-3.19 -10.49,-6.64 a 20.1,20.1 0 0 1 -1.65,-6.05 l 1.43,-15.85 0.76,-8.44 23.37,-6.07 3.31,10.12 0.31,0.77 c 1.33,3.38 6.66,17.13 6.5,20 a 5.46,5.46 0 0 0 1.64,3.95 9.51,9.51 0 0 0 1.82,1.59 z"
         fill="#ffffff"
         id="path525" />
      <path
         d="m 707.03996,749.45997 a 4,4 0 0 1 -0.14,1.43 c 0,0 -34.22,5.71 -41.22,0 a 18.54,18.54 0 0 0 -14.4,-4.22 c 0,0 -13.24,0.36 -15.45,-4 -0.92,-1.83 -0.68,-5.38 -0.11,-8.88 a 84.59,84.59 0 0 1 2.32,-9.71 l 0.53,-0.42 3.15,-2.53 36.88,-1.09 h 0.28 c -0.18,7.54 12.52,16.19 12.52,16.19 13.49,5 15.48,10.65 15.64,13.23 z"
         fill="#ffffff"
         id="path527" />
      <path
         d="m 707.03996,749.45997 a 4.08,4.08 0 0 1 -0.15,1.43 c 0,0 -34.21,5.71 -41.21,0 a 18.54,18.54 0 0 0 -14.39,-4.22 c 0,0 -13.25,0.36 -15.45,-4 -0.92,-1.84 -0.69,-5.38 -0.12,-8.88 5.1,0.51 13.15,1.78 16.31,4.81 4.78,4.61 12.88,9.21 17.85,9.57 3.89,0.25 27.16,0.99 37.16,1.29 z"
         opacity="0.1"
         id="path529" />
      <path
         d="m 597.74996,757.51997 c 0,0 -16,5.88 -27,6.62 -5.84,0.39 -8.91,-3.19 -10.48,-6.65 4.07,1.37 9.72,2.81 12.69,1.49 3.52,-1.56 16,-2.57 23,-3 a 9.85,9.85 0 0 0 1.79,1.54 z"
         opacity="0.1"
         id="path531" />
      <path
         d="m 621.48996,283.66997 c -13.2,-5.13 -30.18,-22.08 -25.94,-30 a 17.72,17.72 0 0 0 1.65,-6.36 58.07,58.07 0 0 0 0.12,-9 123.25,123.25 0 0 0 -1.77,-14.64 c 0,0 41.21,0.93 38.81,7 -0.7,1.78 -0.81,4.87 -0.62,8.33 0.19,3.46 0.69,7.37 1.21,10.68 0.72,4.54 1.44,8 1.44,8 0,0 -2.52,3.53 -4,3.72 -1.48,0.19 8.04,29.58 -10.9,22.27 z"
         fill="#cf6f80"
         id="path533" />
      <path
         d="m 587.75996,731.97997 -0.31,0.34 c -12.32,-14.9 -27.22,3.67 -27.22,3.67 l -0.22,-0.39 0.76,-8.44 23.37,-6.07 3.31,10.12 z"
         opacity="0.1"
         id="path535" />
      <path
         d="m 678.88996,721.08997 c 0,0 -9,-0.19 -13.8,4.05 -4.8,4.24 -28,0.92 -27,0 a 3.29,3.29 0 0 0 0.52,-1.52 l 3.15,-2.53 36.88,-1.09 c 0.14,0.67 0.25,1.09 0.25,1.09 z"
         opacity="0.1"
         id="path537" />
      <path
         d="m 603.08996,604.07997 a 27.82,27.82 0 0 0 -1.52,5.13 58.71,58.71 0 0 0 -0.69,14.56 c 0.37,7 0,53.91 0,53.91 0,0 -7.91,12.51 -12.32,16.92 -4.41,4.41 9,12.33 9,12.33 2,11.4 -10.12,24.28 -10.12,24.28 -12.32,-14.9 -27.22,3.68 -27.22,3.68 0,0 -8.1,-14 -10.12,-19 -2.02,-5 7.91,-8.46 11.4,-10.49 3.49,-2.03 -0.17,-14 -0.17,-14 0,0 -2.95,-10.49 -6.45,-20.06 -3.5,-9.57 3.86,-57.21 3.86,-57.21 0,0 0.38,-8.46 1.29,-11.41 a 19.08,19.08 0 0 0 0.27,-6.48 c -0.06,-0.73 -0.13,-1.34 -0.18,-1.75 -0.05,-0.41 -0.09,-0.6 -0.09,-0.6 l 0.14,-0.24 5,-9.32 c 0,0 40.32,13.88 37.92,19.75 z"
         fill="#6c63ff"
         id="path539" />
      <path
         d="m 678.88996,719.98997 c 0,0 -9,-0.19 -13.8,4 -4.8,4.19 -28,0.92 -27,0 1,-0.92 0.92,-7.73 0.92,-7.73 -13.61,-18.58 -2,-26.12 -2,-26.12 0,0 -6.08,-29.25 -7.18,-40.1 -0.77,-7.58 -1.72,-27.95 -2.23,-39.58 -0.22,-5 -0.35,-8.44 -0.35,-8.44 l 11.12,-2.24 1.43,-0.29 26.82,-5.38 c 0,0 0.74,5 1.24,9.09 a 42.48,42.48 0 0 1 0.42,5.27 c -0.18,2 0,8.26 0,8.26 l 0.91,18.77 a 21.32,21.32 0 0 0 -0.91,6.07 c 0.18,2.39 3.67,36.61 3.67,36.61 0,0 6.07,20.42 4,21.89 -2.07,1.47 2.94,19.92 2.94,19.92 z"
         fill="#6c63ff"
         id="path541" />
      <path
         d="m 634.35996,230.66997 c -0.7,1.78 -0.81,4.87 -0.62,8.33 a 34.25,34.25 0 0 1 -36.42,-0.68 123.25,123.25 0 0 0 -1.77,-14.65 c 0,0 41.21,0.91 38.81,7 z"
         opacity="0.1"
         id="path543" />
      <path
         d="m 650.28996,208.56997 a 33.87,33.87 0 0 1 -1.68,10.61 34.22,34.22 0 0 1 -66.74,-9.79 c 0,-0.28 0,-0.54 0,-0.82 a 34.22,34.22 0 1 1 68.43,0 z"
         fill="#cf6f80"
         id="path545" />
      <path
         d="m 621.48996,283.66997 c -13.2,-5.13 -30.18,-22.08 -25.94,-30 a 17.72,17.72 0 0 0 1.65,-6.36 l 18.07,14.85 11.18,9.17 8.5,-21.64 c 0.72,4.54 1.44,8 1.44,8 0,0 -2.52,3.53 -4,3.72 -1.48,0.19 8.04,29.57 -10.9,22.26 z"
         opacity="0.1"
         id="path547" />
      <polygon
         points="359.99,275.03 371.18,284.2 379.93,261.93 396.2,276.11 412.94,360 397.85,613.5 378.17,614.79 327.21,467.8 335.57,293.29 337.33,256.42 "
         fill="#6c63ff"
         id="polygon549"
         transform="translate(255.27996,-10.70003)" />
      <path
         d="m 603.08996,604.07997 a 27.82,27.82 0 0 0 -1.52,5.13 145,145 0 0 1 -41.26,-12.89 l -0.27,-0.14 0.09,-1.61 0.05,-0.84 5,-9.32 c 0,0 40.31,13.8 37.91,19.67 z"
         opacity="0.1"
         id="path551" />
      <path
         d="m 638.59996,609.24997 a 101.24,101.24 0 0 1 -11.06,1.26 c -0.22,-5 -0.35,-8.44 -0.35,-8.44 l 11.12,-2.24 z"
         opacity="0.1"
         id="path553" />
      <path
         d="m 667.79996,603.24997 c -7.11,1.85 -18.09,3.93 -27.92,2.63 l -0.14,-6.34 26.82,-5.38 c 0,0 0.74,4.95 1.24,9.09 z"
         opacity="0.1"
         id="path555" />
      <path
         d="m 639.69996,607.03997 c -41,7 -78.55,-13.07 -78.55,-13.07 l 0.36,-6.8 c 0,0 0.93,-77.09 -1.65,-83 -2.58,-5.91 -4.59,-35.88 -3.13,-40.48 1.46,-4.6 -5.33,-73.58 -5.33,-73.58 l -1.1,-28 -40.26,-16.31 18,-37.52 a 135.39,135.39 0 0 0 6.26,-16.2 c 3.13,-9.74 17.66,-19.31 17.66,-19.31 0,0 14.9,-9.56 20.79,-9.2 5.89,0.36 13.61,-8.46 13.61,-8.46 5.7,-14.53 10.86,-7.95 10.86,-7.95 0,0.69 0,0 -0.28,2.15 -2,15.95 32.34,66.35 32.83,67.24 v 0 l 3.27,79.66 3.31,100.81 z"
         opacity="0.1"
         id="path557" />
      <path
         d="m 638.59996,607.03997 c -41,7 -78.56,-13.07 -78.56,-13.07 l 0.37,-6.8 c 0,0 0.93,-77.09 -1.66,-83 -2.59,-5.91 -4.59,-35.88 -3.12,-40.48 1.47,-4.6 -5.33,-73.58 -5.33,-73.58 l -1.11,-28 -40.28,-16.37 18,-37.52 a 137.51,137.51 0 0 0 6.26,-16.2 c 3.12,-9.74 17.66,-19.31 17.66,-19.31 0,0 14.9,-9.56 20.78,-9.2 5.88,0.36 13.61,-8.46 13.61,-8.46 5.71,-14.53 12,-7.95 12,-7.95 0,0.69 -0.6,1 -0.28,2.15 4.4,15.47 31.24,66.35 31.73,67.24 v 0 l 3.31,79.66 3.31,100.81 z"
         fill="#ffffff"
         id="path559" />
      <path
         d="m 627.54996,318.75997 c -4.41,-1.84 -27.77,-28.51 -27.77,-28.51 v -6.07 c -0.85,-2 -5.9,-0.78 -10,0.62 l 1.76,-36.87 2,1.66 c 4.38,15.46 33.5,68.28 34.01,69.17 z"
         opacity="0.1"
         id="path561" />
      <path
         d="m 628.65996,316.54997 c -4.42,-1.84 -27.78,-28.51 -27.78,-28.51 v -6.07 c -0.85,-2 -5.9,-0.78 -10,0.62 l 1.77,-36.87 2,1.66 c 4.39,15.46 33.52,68.29 34.01,69.17 z"
         fill="#ffffff"
         id="path563" />
      <path
         d="m 561.14996,449.55997 c 0.55,0 28.51,-2.94 28.51,-2.94 0,0 16.93,33.29 15.82,41.39 -1.11,8.1 -3.12,15.27 -9.93,14 -6.81,-1.27 -36.65,1 -36.65,1 z"
         opacity="0.1"
         id="path565" />
      <path
         d="m 560.03996,447.34997 c 0.55,0 28.51,-2.94 28.51,-2.94 0,0 16.92,33.3 15.82,41.39 -1.1,8.09 -3.13,15.27 -9.93,14 -6.8,-1.27 -36.65,1 -36.65,1 z"
         fill="#ffffff"
         id="path567" />
      <path
         d="m 581.10996,431.71997 c 0,0 25.66,13.79 26.21,18 0.55,4.21 -13.06,-1.84 -16,-2.57 a 36.61,36.61 0 0 0 -5.89,-0.92 l -19.61,0.53 z"
         fill="#cf6f80"
         id="path569" />
      <circle
         cx="620.38995"
         cy="317.77997"
         r="2.7"
         opacity="0.1"
         id="circle571" />
      <circle
         cx="620.38995"
         cy="316.67996"
         r="2.7"
         fill="#3f3d56"
         id="circle573" />
      <circle
         cx="625.35992"
         cy="434.65994"
         r="2.7"
         opacity="0.1"
         id="circle575" />
      <circle
         cx="625.35992"
         cy="433.54996"
         r="2.7"
         fill="#3f3d56"
         id="circle577" />
      <circle
         cx="623.07996"
         cy="376.21997"
         r="2.7"
         opacity="0.1"
         id="circle579" />
      <circle
         cx="623.07996"
         cy="375.11996"
         r="2.7"
         fill="#3f3d56"
         id="circle581" />
      <path
         d="m 685.31996,445.66997 c 0,0 1.84,2.76 0,4.05 -1.84,1.29 0.18,4.41 0.18,4.41 0,0 -4.59,2.69 -2.57,5.11 2.02,2.42 0.74,13.35 0.74,13.35 l -5.52,9.14 c 0,0 0.33,5.89 0.35,13.85 0,12.42 -0.73,29.88 -4.77,37.84 l 0.56,65.31 c 0,0 -19.33,7.06 -35.51,4.91 l -2.4,-104.8 c 0,0 3.5,-59.43 4.79,-70.83 a 118.68,118.68 0 0 0 0.92,-17.85 c 0,0 -0.55,-17.84 -2.4,-26.12 0,0 -2,-35.87 -2.2,-45.8 -0.09,-4.75 0.16,-18.61 0.44,-31.79 0.31,-14.41 0.66,-28 0.66,-28 l -3.65,-28.88 c 0,0 3.65,-0.37 4.75,1.1 a 10.53,10.53 0 0 0 1.6,1.23 v 0 c 6.3,4.26 28.56,17.36 28.56,17.36 0,0 12.32,4.9 15.27,11.92 2.95,7.02 5,12 6.43,14 1.43,2 2.21,11.4 2.21,11.4 0,0 4.24,17.3 7.55,20.23 3.31,2.93 5.73,21.57 5.73,21.57 l -29.25,23 c 0,0 -2.57,38.26 -3.12,39.74 -0.55,1.48 10.65,34.55 10.65,34.55 z"
         fill="#ffffff"
         id="path583" />
      <path
         d="m 686.42996,445.66997 c 0,0 1.83,2.76 0,4.05 -1.83,1.29 0.17,4.41 0.17,4.41 0,0 -4.56,2.72 -2.56,5.14 2,2.42 0.74,13.35 0.74,13.35 l -5.52,9.14 c 0,0 0.33,5.89 0.36,13.85 0,12.42 -0.73,29.88 -4.77,37.84 l 0.55,65.31 c 0,0 -19.36,7.06 -35.52,4.91 l -2.39,-104.8 c 0,0 3.5,-59.43 4.79,-70.83 a 117.58,117.58 0 0 0 0.91,-17.85 c 0,0 -0.55,-17.84 -2.39,-26.12 0,0 -2,-35.87 -2.21,-45.8 -0.09,-4.75 0.17,-18.61 0.44,-31.79 0.31,-14.41 0.66,-28 0.66,-28 l -4.82,-29.27 c 0,0 4.82,0 5.93,1.49 a 9.49,9.49 0 0 0 1.6,1.23 v 0 c 6.3,4.26 28.57,17.36 28.57,17.36 0,0 12.31,4.9 15.26,11.92 2.95,7.02 5,12 6.44,14 1.44,2 2.2,11.4 2.2,11.4 0,0 4.24,17.3 7.55,20.23 3.31,2.93 5.7,21.53 5.7,21.53 l -29.25,23 c 0,0 -2.57,38.26 -3.13,39.74 -0.56,1.48 10.69,34.56 10.69,34.56 z"
         fill="#ffffff"
         id="path585" />
      <path
         d="m 651.39996,286.96997 2.64,7.7 -13.9,14 c 0.31,-14.4 0.66,-28 0.66,-28 l -4.82,-29.27 c 0,0 4.82,0 5.93,1.49 a 9.12,9.12 0 0 0 1.6,1.22 v 0 l 11.82,34.1 z"
         opacity="0.1"
         id="path587" />
      <path
         d="m 650.28996,284.75997 2.65,7.7 -13.9,14 c 0.31,-14.41 0.66,-28 0.66,-28 l -4.83,-29.27 c 0,0 4.83,0 5.93,1.49 a 10,10 0 0 0 1.6,1.23 v 0 l 11.83,34.09 z"
         fill="#ffffff"
         id="path589" />
      <path
         d="m 650.28996,208.56997 a 33.87,33.87 0 0 1 -1.68,10.61 1.43,1.43 0 0 1 -1.08,-0.27 c -0.26,-9 -4.69,-17.45 -10.14,-24.64 a 25.89,25.89 0 0 0 -5.5,-5.7 10.76,10.76 0 0 0 -7.46,-2.11 c -3,0.41 -5.65,2.45 -8.68,2.71 -4,0.33 -7.58,-2.44 -11.55,-2.58 a 11.35,11.35 0 0 0 -8.49,3.94 23.29,23.29 0 0 0 -4.55,8.44 49.38,49.38 0 0 0 -2.54,14.56 c -0.05,2.8 -0.32,6.31 -2.92,7.33 a 14.94,14.94 0 0 0 -3.77,-11.41 l -0.06,-0.06 c 0,-0.28 0,-0.54 0,-0.82 a 34.22,34.22 0 1 1 68.43,0 z"
         opacity="0.1"
         id="path591" />
      <path
         d="m 630.24996,154.23997 a 23.56,23.56 0 0 0 -16.62,-1.3 c -2.77,0.82 -5.38,2.15 -8.19,2.82 -6,1.45 -13,-0.12 -18.15,3.39 -2.86,2 -4.58,5.16 -6.18,8.23 l -4,7.62 c -2.18,4.17 -4.38,8.41 -5.29,13 -0.91,4.59 -0.36,9.73 2.55,13.42 2.12,2.69 5.25,4.38 7.55,6.91 a 15,15 0 0 1 3.76,11.4 c 2.61,-1 2.86,-4.52 2.92,-7.32 a 49.38,49.38 0 0 1 2.54,-14.56 23.21,23.21 0 0 1 4.55,-8.44 11.37,11.37 0 0 1 8.49,-3.94 c 4,0.14 7.59,2.9 11.55,2.57 3,-0.25 5.66,-2.3 8.68,-2.7 a 10.72,10.72 0 0 1 7.46,2.11 25.62,25.62 0 0 1 5.49,5.7 c 5.46,7.19 9.89,15.62 10.15,24.64 1.13,0.83 2.76,-0.25 3.32,-1.53 0.56,-1.28 0.58,-2.78 1.29,-4 0.82,-1.41 2.39,-2.16 3.62,-3.22 3.12,-2.69 3.9,-7.22 3.78,-11.33 -0.12,-4.11 -0.92,-8.28 -0.14,-12.32 0.47,-2.48 1.53,-4.8 2.11,-7.25 0.58,-2.45 0.65,-5.2 -0.72,-7.31 -2,-3.1 -6.21,-3.71 -9.88,-4 -4.17,-0.36 -7.9,0.1 -10.56,-3.41 a 38.3,38.3 0 0 0 -4.2,-5.14 c -0.53,-0.52 -5.88,-3.82 -5.88,-4.04 z"
         fill="#512e4e"
         id="path593" />
      <path
         d="m 521.55996,365.11997 -10.45,-19.32 -3.31,29.81 c 0,0 1.84,13.24 1.47,15.27 -0.37,2.03 7.54,20.23 7.54,20.23 0,0 26.13,46.54 36.8,48.94 l 36.05,-25.76 -9.56,-12.14 c 0,0 -3.31,-1.29 -4.14,0 0,0 -17.75,-30.54 -19.59,-32.75 -1.84,-2.21 -1.48,-6.62 -1.48,-6.62 0,0 -2.76,-2.94 -1.84,-5.7 0.92,-2.76 -5.33,-12.33 -5.33,-12.33 l 5.7,-5.33 z"
         opacity="0.1"
         id="path595" />
      <path
         d="m 511.65996,343.59997 -2.76,2.2 -3.31,29.81 c 0,0 1.84,13.24 1.47,15.27 -0.37,2.03 7.55,20.23 7.55,20.23 0,0 26.12,46.54 36.79,48.94 l 36.06,-25.76 -9.57,-12.14 c 0,0 -3.31,-1.29 -4.14,0 0,0 -17.75,-30.54 -19.59,-32.75 -1.84,-2.21 -1.47,-6.62 -1.47,-6.62 0,0 -2.76,-2.94 -1.84,-5.7 0.92,-2.76 -5.34,-12.33 -5.34,-12.33 l 5.7,-5.33 z"
         fill="#ffffff"
         id="path597" />
      <path
         d="m 682.92996,460.37997 c 2,2.43 0.74,13.34 0.74,13.34 l -5.52,9.14 c 0,0 0.33,5.9 0.35,13.85 l -9.28,2.9 a 5.51,5.51 0 0 1 -7.15,-5.43 l 1.6,-51.61 21.65,8.28 c -1.84,1.28 0.18,4.42 0.18,4.42 0,0 -4.59,2.68 -2.57,5.11 z"
         opacity="0.1"
         id="path599" />
      <path
         d="m 684.03996,459.26997 c 2,2.43 0.74,13.35 0.74,13.35 l -5.52,9.14 c 0,0 0.33,5.89 0.36,13.85 l -9.45,2.95 a 5.4,5.4 0 0 1 -7,-5.32 l 1.61,-51.77 21.66,8.28 c -1.85,1.28 0.17,4.41 0.17,4.41 0,0 -4.57,2.69 -2.57,5.11 z"
         fill="#ffffff"
         id="path601" />
      <path
         d="m 691.20996,434.66997 c 0,0 -1.47,9.39 -5.15,9.94 -3.68,0.55 -5.33,15.19 -9,14.67 -3.67,-0.52 -1.24,-13.61 -1.11,-16.15 0.13,-2.54 -4,-13.06 -0.91,-15.45 3.09,-2.39 12.87,0 12.87,0 z"
         fill="#cf6f80"
         id="path603" />
      <path
         d="m 699.03996,362.35997 6.94,-14 c 0,0 2.76,10.67 2.76,16.37 0,5.7 3.86,6.26 3.86,6.26 0,0 4.23,5 2,8.64 -2.23,3.64 -3.13,12.7 -3.13,12.7 0,0 0.73,17.29 -2.58,19.68 -3.31,2.39 -4,8.1 -4,8.1 0,0 -6.08,10.85 -5.89,13.43 0.19,2.58 -8.46,20.05 -8.46,20.05 0,0 4.23,-21.71 -20.42,-31.09 0,0 -0.19,-7.37 1.65,-9.39 1.84,-2.02 4.71,-2.94 2.91,-13.15 -1.8,-10.21 -0.52,-22.41 -0.52,-24.86 0,-2.45 5.52,-17.73 5.52,-17.73 z"
         opacity="0.1"
         id="path605" />
      <path
         d="m 702.03996,346.35997 6.06,2 c 0,0 2.77,10.67 2.77,16.37 0,5.7 3.86,6.26 3.86,6.26 0,0 4.23,5 2,8.64 -2.23,3.64 -3.12,12.7 -3.12,12.7 0,0 0.73,17.29 -2.58,19.68 -3.31,2.39 -4.05,8.1 -4.05,8.1 0,0 -6.07,10.85 -5.88,13.43 0.19,2.58 -8.47,20.05 -8.47,20.05 0,0 4.24,-21.71 -20.42,-31.09 0,0 -0.18,-7.37 1.66,-9.39 1.84,-2.02 4.71,-2.94 2.91,-13.15 -1.8,-10.21 -0.52,-22.41 -0.52,-24.86 0,-2.45 5.52,-17.73 5.52,-17.73 z"
         fill="#ffffff"
         id="path607" />
      <path
         d="m 568.18996,709.22997 c 0,0 9.66,-6.07 16,-1.66 6.34,4.41 -16,1.66 -16,1.66 z"
         opacity="0.1"
         id="path609" />
      <path
         d="m 643.24996,690.45997 c 0,0 8.55,-1.1 15.73,6.63 7.18,7.73 -15.73,-6.63 -15.73,-6.63 z"
         opacity="0.1"
         id="path611" />
      <g
         opacity="0.1"
         id="g619"
         transform="translate(255.27996,-10.70003)">
        <path
           d="m 447.72,276.18 c -1.23,1.06 -2.81,1.82 -3.63,3.23 -0.7,1.21 -0.72,2.7 -1.28,4 -0.56,1.3 -2.19,2.36 -3.32,1.54 -0.26,-9 -4.7,-17.45 -10.15,-24.65 a 25.62,25.62 0 0 0 -5.49,-5.7 10.75,10.75 0 0 0 -7.47,-2.11 c -3,0.41 -5.64,2.45 -8.67,2.7 -4,0.34 -7.59,-2.43 -11.56,-2.57 a 11.32,11.32 0 0 0 -8.48,3.95 23.16,23.16 0 0 0 -4.55,8.43 49.44,49.44 0 0 0 -2.54,14.56 c -0.06,2.79 -0.32,6.27 -2.9,7.31 a 13.7,13.7 0 0 1 0,2.22 c 2.6,-1 2.86,-4.52 2.92,-7.32 a 49.38,49.38 0 0 1 2.54,-14.56 23.21,23.21 0 0 1 4.55,-8.44 11.35,11.35 0 0 1 8.48,-3.94 c 4,0.14 7.6,2.9 11.56,2.57 3,-0.25 5.66,-2.3 8.67,-2.7 a 10.75,10.75 0 0 1 7.47,2.11 25.62,25.62 0 0 1 5.49,5.7 c 5.45,7.19 9.89,15.62 10.15,24.64 1.13,0.83 2.76,-0.25 3.32,-1.53 0.56,-1.28 0.58,-2.78 1.28,-4 0.82,-1.41 2.4,-2.16 3.63,-3.22 3.12,-2.69 3.9,-7.22 3.78,-11.33 0,-0.13 0,-0.26 0,-0.38 -0.19,3.56 -1.14,7.19 -3.8,9.49 z"
           transform="translate(-47.24,-58.63)"
           id="path613" />
        <path
           d="m 373.9,275.47 c -2.3,-2.53 -5.44,-4.22 -7.55,-6.9 a 14.64,14.64 0 0 1 -2.91,-8.19 15.4,15.4 0 0 0 2.91,10.39 c 2.11,2.69 5.25,4.38 7.55,6.91 a 15,15 0 0 1 3.77,8.92 15,15 0 0 0 -3.77,-11.13 z"
           transform="translate(-47.24,-58.63)"
           id="path615" />
        <path
           d="m 453.47,245.28 c -0.59,2.45 -1.64,4.78 -2.12,7.25 a 23.1,23.1 0 0 0 -0.31,5 19.42,19.42 0 0 1 0.31,-2.84 c 0.48,-2.48 1.53,-4.8 2.12,-7.25 a 12.3,12.3 0 0 0 0.33,-4.14 13.9,13.9 0 0 1 -0.33,1.98 z"
           transform="translate(-47.24,-58.63)"
           id="path617" />
      </g>
      <ellipse
         cx="468.09995"
         cy="747.71997"
         rx="97.440002"
         ry="15.65"
         fill="#6c63ff"
         opacity="0.1"
         id="ellipse621" />
      <rect
         x="464.96997"
         y="447.91995"
         width="6.27"
         height="141.17"
         fill="#535461"
         id="rect623" />
      <path
         d="m 510.63996,588.65996 -0.39,6.36 -0.56,9 -0.23,3.74 -0.55,9 -0.24,3.74 -0.56,9 -6.32,102.07 a 17.3,17.3 0 0 1 -17.26,16.22 h -32.86 a 17.29,17.29 0 0 1 -17.25,-16.22 l -6.29,-102.14 -0.56,-9 -0.23,-3.74 -0.56,-9 -0.23,-3.74 -0.56,-9 -0.4,-6.36 a 9,9 0 0 1 9,-9.51 h 67.21 a 8.94,8.94 0 0 1 8.84,9.58 z"
         fill="#3f3d56"
         id="path625" />
      <polygon
         points="91.14,601.21 90.58,592.24 174.88,592.24 174.32,601.21 "
         fill="#9d9cb5"
         id="polygon627"
         transform="translate(335.36996,2.779963)" />
      <polygon
         points="91.93,613.93 91.37,604.95 174.09,604.95 173.54,613.93 "
         fill="#9d9cb5"
         id="polygon629"
         transform="translate(335.36996,2.779963)" />
      <polygon
         points="92.72,626.65 92.16,617.68 173.3,617.68 172.75,626.65 "
         fill="#9d9cb5"
         id="polygon631"
         transform="translate(335.36996,2.779963)" />
      <path
         d="m 416.37996,500.82996 c 36.51,26.42 51.75,67.74 51.75,67.74 0,0 -44,-1.51 -80.52,-27.93 -36.52,-26.42 -51.73,-67.73 -51.73,-67.73 0,0 43.98,1.5 80.5,27.92 z"
         fill="#6c63ff"
         id="path633"
         style="fill:#00bd49;fill-opacity:1" />
      <path
         d="m 335.84996,472.90996 c 0,0 45.68,25.35 60.33,46.34 14.65,20.99 71.95,49.32 71.95,49.32"
         fill="none"
         stroke="#535461"
         stroke-miterlimit="10"
         stroke-width="2"
         id="path635" />
      <path
         d="m 439.94996,447.60996 c 19.87,14.37 28.18,36.86 28.18,36.86 0,0 -23.95,-0.82 -43.83,-15.19 -19.88,-14.37 -28.17,-36.87 -28.17,-36.87 0,0 23.94,0.82 43.82,15.2 z"
         fill="#6c63ff"
         id="path637"
         style="fill:#00bd49;fill-opacity:1" />
      <path
         d="m 396.12996,432.40996 c 0,0 24.86,13.8 32.83,25.22 7.97,11.42 39.17,26.84 39.17,26.84"
         fill="none"
         stroke="#535461"
         stroke-miterlimit="10"
         stroke-width="2"
         id="path639" />
      <path
         d="m 496.97996,483.32996 c -22.83,25.09 -27.66,57.88 -27.66,57.88 0,0 32.19,-7.9 55,-33 22.81,-25.1 27.66,-57.88 27.66,-57.88 0,0 -32.17,7.91 -55,33 z"
         fill="#6c63ff"
         id="path641"
         style="fill:#00bd49;fill-opacity:1" />
      <path
         d="m 551.99996,450.33996 c 0,0 -29.74,25.72 -37.3,43.44 -7.56,17.72 -45.38,47.43 -45.38,47.43"
         fill="none"
         stroke="#535461"
         stroke-miterlimit="10"
         stroke-width="2"
         id="path643" />
      <ellipse
         cx="852.78705"
         cy="762.76428"
         rx="121.59"
         ry="15.65"
         fill="#6c63ff"
         opacity="0.1"
         id="ellipse409" />
      <rect
         x="844.23999"
         y="349.03"
         width="28.440001"
         height="28.440001"
         fill="#6c63ff"
         opacity="0.1"
         id="rect483" />
      <rect
         x="844.23999"
         y="419.17999"
         width="28.440001"
         height="28.440001"
         fill="#6c63ff"
         opacity="0.1"
         id="rect487" />
      <rect
         x="844.23999"
         y="489.32001"
         width="28.440001"
         height="28.440001"
         fill="#6c63ff"
         opacity="0.1"
         id="rect491" />
      <rect
         x="844.23999"
         y="559.46997"
         width="28.440001"
         height="28.440001"
         fill="#6c63ff"
         opacity="0.1"
         id="rect495" />
      <rect
         x="630.73999"
         y="624.85999"
         width="28.440001"
         height="28.440001"
         fill="#6c63ff"
         opacity="0.1"
         id="rect497" />
      <rect
         x="844.23999"
         y="629.62"
         width="28.440001"
         height="28.440001"
         fill="#6c63ff"
         opacity="0.1"
         id="rect499" />
      <polygon
         points="804.26,702.33 804.26,718.06 775.83,720.67 775.83,702.33 "
         fill="#6c63ff"
         opacity="0.1"
         id="polygon501"
         transform="translate(-145.09002,-7.33)" />
      <path
         d="m 956.03996,475.40997 c 0,0 -16.51,-82.14 -10.19,-92.36 0,0 0.23,-9.5 -0.15,-21.61 0,-0.46 0,-0.92 0,-1.39 a 30.76,30.76 0 0 0 3.47,2 28.08,28.08 0 0 0 18.9,2.44 l -5,-5.57 c -1.2,-1.33 -2.45,-2.77 -2.71,-4.53 -0.26,-1.76 0.46,-3.33 1.08,-4.9 4.75,-12 5,-27.09 -4.15,-36.25 -7.73,-7.7 -9.61,-17.64 -18,-24.67 -6.13,-5.15 -9.5,-12.7 -12.68,-20 -2.69,-6.17 -5.4,-12.39 -6.94,-18.93 -1.2,-5.11 -1.68,-10.4 -3.33,-15.39 -1.65,-4.99 -4.74,-9.84 -9.57,-12.07 -1.72,-0.79 -3.63,-1.24 -5.2,-2.29 -2.06,-1.39 -3.3,-3.65 -4.79,-5.63 -7.57,-10 -32.92,-4.11 -44.92,-0.05 a 25.27,25.27 0 0 0 -8.88,4.92 l 0.11,-0.18 c 0.09,-0.15 0.2,-0.3 0.3,-0.45 a 15.78,15.78 0 0 0 -3.36,3.75 c -1.75,2.77 -2.48,6 -3.94,9 -1.76,3.55 -11.55,13.46 -7.34,17.45 a 3.55,3.55 0 0 0 1,0.64 8.65,8.65 0 0 0 5,0.5 l -0.18,0.43 a 29.23,29.23 0 0 0 -2.17,11.09 c 0,16.43 13.55,29.75 30.28,29.75 a 30.57,30.57 0 0 0 9.27,-1.43 c 0.07,0.38 0.13,0.76 0.2,1.14 0,0.15 0.05,0.3 0.07,0.45 v 0 l -0.53,0.74 a 1,1 0 0 0 -0.09,-0.13 l -15.7,21.94 c -2.4,1.69 -16.22,11.69 -17,19.19 -0.82,8.21 -1.64,17.82 -1.64,17.82 l -0.11,2.06 a 6.18,6.18 0 0 1 -5,1.35 c -4.9,-0.8 -4.9,18 -4.9,18 0,0 -3.26,3 -5.5,0.4 -2.24,-2.6 -8.16,6.21 -8.16,6.21 l -37.1,1.6 v 0 l -0.85,0.05 -2,-6.19 a 2.61,2.61 0 0 0 -3.27,-1.67 3,3 0 0 0 -0.45,0.19 l -0.14,0.08 -0.26,0.18 -0.13,0.12 a 2,2 0 0 0 -0.2,0.21 l -0.12,0.14 -0.06,0.06 v 0 a 2.52,2.52 0 0 0 -0.36,2.24 l 1.72,5.31 c -7.16,1.44 -14.48,5.5 -8.51,16.68 l -30.26,-5.59 9.79,8.22 50.54,10.43 c -0.67,1.2 -0.23,2.94 1.86,5.39 9,10.57 25.4,13.44 32,14.18 a 56.81,56.81 0 0 0 6.49,11 l -0.57,10.53 c 0,0 -16.71,80.26 -19.77,84.33 a 47.57,47.57 0 0 0 4.23,-5.57 c -4.85,16.49 -11.63,39.06 -13.41,42.44 -2.86,5.4 -5.51,27.25 -2.25,28.65 1,0.43 3.86,0.22 7.94,-0.09 v 1.81 l -0.18,68.59 c 0,0 0.82,42.07 -1.43,46.08 -2.25,4.01 -2.85,12.42 -2.85,12.42 0,0 -9,16.59 -16.13,23.26 a 1.07,1.07 0 0 1 -0.16,0.14 l -0.22,-1.56 c 0,0 -8.57,10.82 -27.53,10.21 0,0 -11.41,7.42 5.51,7.82 16.92,0.4 38.53,-0.6 38.53,-0.6 0,0 15.09,-23 27.73,-20 v 17.43 h 3.87 v -17.71 a 15.87,15.87 0 0 0 6.89,-10.43 12.68,12.68 0 0 0 -4.52,-11.73 7.5,7.5 0 0 1 -2.47,-5.48 l -0.14,0.12 c 0,-0.35 -0.09,-0.71 -0.13,-1.08 -1.11,-9 -2.5,-27.57 2.41,-41.31 6.73,-18.84 8.77,-45.08 3.87,-60.7 a 139.56,139.56 0 0 1 -3.89,-15.21 c -0.12,-0.65 -0.23,-1.27 -0.33,-1.85 a 78.85,78.85 0 0 1 9.93,2 c 11.35,3.13 36.18,3.71 57.38,3.54 0.05,0.58 0.11,1.19 0.18,1.8 a 65.5,65.5 0 0 0 2.36,12.52 c 2.66,8 3.88,43.27 3.88,43.27 0,0 3.43,29 1.56,40.8 -1,6.56 -2,13.15 -2.57,19.77 v 0.13 c 0,0 -5.62,16 -9.73,24.69 -0.1,0.22 -0.21,0.44 -0.31,0.65 a 13,13 0 0 0 -3.21,0.71 c 0,0 -5.51,11 -11,12.82 -5.49,1.82 -3.67,7.81 8.76,5.61 12.43,-2.2 31.2,-4 31.2,-4 l 0.81,-11.22 3.82,-4.78 -1,11.19 4.07,-0.8 -0.54,-13.61 6.25,-7.82 c 0,0 7.55,-6.72 -3.67,-19.94 v 0.29 c -0.12,-0.19 -0.23,-0.39 -0.36,-0.58 v -0.06 c -1.86,-2.88 -3.34,-8.25 -0.63,-17.78 4.9,-17.22 7.75,-32.85 7.75,-32.85 0,0 10.94,-41.87 -2.21,-61.68 h 0.58 a 33.32,33.32 0 0 1 -2.83,-8.8 q -0.1,-0.54 -0.18,-1.11 c 9.73,-0.56 19.28,-2.32 27.07,-6.12 -0.03,-0.04 -4.72,-99.4 -8.6,-115.22 z m -123.53,-69.3 v 0.2 l -2,0.1 z m -6.86,0.95 a 2.21,2.21 0 0 0 -0.9,0.43 8.88,8.88 0 0 0 -1.57,4.11 l -3.12,-0.7 c 0,0 -2.19,-0.47 -5.34,-1 l -1.49,-1.5 c 4.1,-0.34 8.36,-0.84 12.42,-1.34 z"
         fill="url(#ad14f186-b27f-416c-b629-0bafa2f1236e)"
         id="path645"
         style="fill:url(#ad14f186-b27f-416c-b629-0bafa2f1236e)" />
      <polygon
         points="972.51,743.53 971.32,757.7 975.31,756.9 974.71,741.53 "
         fill="#1d2366"
         id="polygon647"
         transform="translate(-40.160036,-2.5700342)" />
      <path
         d="m 841.31996,673.67997 c -4.81,13.7 -3.45,32.19 -2.37,41.17 0.4,3.32 0.77,5.34 0.77,5.34 0,0 -7.19,16.38 -7.79,17 -0.6,0.62 -21.16,13.17 -21.16,13.17 l -14.37,8.39 c 0,0 -14.58,-6.39 -7.59,-8.59 a 10.61,10.61 0 0 0 3.77,-2.57 c 7,-6.65 15.79,-23.18 15.79,-23.18 0,0 0.6,-8.39 2.8,-12.38 2.2,-3.99 1.4,-45.92 1.4,-45.92 l 0.17,-68.35 v -8.91 l 27.35,0.2 a 61.89,61.89 0 0 0 1.18,9 137.59,137.59 0 0 0 3.81,15.16 c 4.82,15.59 2.82,41.7 -3.76,60.47 z"
         fill="#ffb0b1"
         id="path649" />
      <path
         d="m 839.71996,720.18997 c 0,0 -7.19,16.38 -7.79,17 -0.6,0.62 -21.16,13.17 -21.16,13.17 l -14.37,8.39 c 0,0 -14.58,-6.39 -7.59,-8.59 a 10.61,10.61 0 0 0 3.77,-2.57 l 0.62,4.37 4.79,-0.2 41,-36.89 c 0.36,3.3 0.73,5.32 0.73,5.32 z"
         opacity="0.1"
         id="path651" />
      <path
         d="m 839.21996,715.79997 -41.23,37.14 -4.79,0.2 -1,-7 c 0,0 -8.38,10.78 -27,10.18 0,0 -11.18,7.39 5.39,7.79 16.57,0.4 37.73,-0.6 37.73,-0.6 0,0 14.78,-23 27.15,-20 v 17.37 h 3.8 v -17.53 a 15.79,15.79 0 0 0 6.74,-10.4 12.74,12.74 0 0 0 -4.41,-11.68 7.53,7.53 0 0 1 -2.38,-5.47 z"
         fill="#1d2366"
         id="path653" />
      <path
         d="m 936.14996,695.03997 c -2.66,9.5 -1.21,14.85 0.61,17.72 v 0.06 a 32.75,32.75 0 0 1 4.78,11.67 l 0.16,0.9 -18.76,27.35 -10.18,4 c 0,0 -16.37,-5.59 -13.38,-7.19 0.75,-0.39 1.92,-2.47 3.26,-5.34 4,-8.65 9.52,-24.61 9.52,-24.61 v -0.13 c 0.58,-6.59 1.5,-13.16 2.52,-19.7 1.83,-11.77 -1.53,-40.66 -1.53,-40.66 0,0 -1.2,-35.13 -3.8,-43.12 a 65.93,65.93 0 0 1 -2.33,-12.44 c -0.54,-5 -0.66,-9.12 -0.66,-9.12 0,0 10.78,-15 30.54,1.2 a 21.74,21.74 0 0 1 4.13,4.48 c 13.65,19.42 2.66,62.2 2.66,62.2 0,0 -2.75,15.56 -7.54,32.73 z"
         fill="#ffb0b1"
         id="path655" />
      <path
         d="m 941.72996,725.38997 -18.76,27.35 -10.18,4 c 0,0 -16.37,-5.59 -13.38,-7.19 0.75,-0.39 1.92,-2.47 3.26,-5.34 6.93,-0.06 10.52,6.54 10.52,6.54 l 8.78,-1.4 c 0,0 11.58,-22.76 14.18,-24.15 2.6,-1.39 0.4,-10.39 0.4,-10.39 v -2.29 c 0.07,0.08 0.13,0.17 0.21,0.25 v 0.06 a 32.75,32.75 0 0 1 4.78,11.67 z"
         opacity="0.1"
         id="path657" />
      <path
         d="m 913.78996,751.33997 c 0,0 -5,-9.18 -14.58,-5.79 0,0 -5.39,11 -10.78,12.78 -5.39,1.78 -3.59,7.78 8.59,5.59 12.18,-2.19 30.54,-4 30.54,-4 l 0.8,-11.19 12.38,-15.77 c 0,0 7.38,-6.69 -3.6,-19.86 v 2.29 c 0,0 2.2,9 -0.4,10.39 -2.6,1.39 -14.14,24.16 -14.14,24.16 z"
         fill="#1d2366"
         id="path659" />
      <path
         d="m 840.11996,589.02997 a 61.89,61.89 0 0 0 1.18,9 c -11.26,-1.65 -21.71,-0.83 -28.56,-0.29 v -8.91 z"
         opacity="0.1"
         id="path661" />
      <path
         d="m 942.13996,602.59997 c 0,0 -16,0.78 -35.08,0.94 -0.54,-5 -0.66,-9.12 -0.66,-9.12 0,0 10.78,-15 30.54,1.2 a 21.74,21.74 0 0 1 4.13,4.48 24.4,24.4 0 0 0 1.07,2.5 z"
         opacity="0.1"
         id="path663" />
      <path
         d="m 942.13996,600.79997 c 0,0 -70.08,3.39 -91.44,-2.6 -21.36,-5.99 -42.53,-0.8 -45.72,-2.19 -3.19,-1.39 -0.6,-23.16 2.2,-28.55 2.8,-5.39 18.16,-59.9 18.16,-59.9 l 14.78,-77.06 15.57,-4.29 1.1,-0.31 27.13,-7.48 19.88,-5.49 c 0,0 39.53,154.33 36.14,165.71 a 29.14,29.14 0 0 0 -0.58,13.39 33.42,33.42 0 0 0 2.78,8.77 z"
         fill="#1d2366"
         id="path665" />
      <path
         d="m 788.59996,377.79997 c 0,0 -14,15 -3.4,23.36 10.6,8.36 17.57,0.8 17.57,0.8 z"
         fill="#c7daf5"
         id="path667" />
      <path
         d="m 788.59996,377.79997 c 0,0 -14,15 -3.4,23.36 10.6,8.36 17.57,0.8 17.57,0.8 z"
         opacity="0.1"
         id="path669" />
      <path
         d="m 901.70996,279.17997 c 0,0 -1.64,1.56 -4.11,3.86 -3.52,3.29 -8.73,8.1 -13.35,12.13 -6.4,5.57 -11.68,9.66 -9.79,6.17 1.89,-3.49 1.53,-9.57 0.59,-15.26 -0.07,-0.38 -0.13,-0.76 -0.2,-1.13 a 104.8,104.8 0 0 0 -3.09,-12.36 c 0,0 10.34,-13.36 16.06,-18.63 2.13,-2 3.62,-2.82 3.71,-1.43 0.1,1.87 1.5,6 3.24,10.38 0.05,0.14 0.1,0.27 0.16,0.41 1.16,3 2.47,6.08 3.62,8.74 1.76,4.08 3.16,7.12 3.16,7.12 z"
         fill="#ffb0b1"
         id="path671" />
      <path
         d="m 894.92996,263.31997 a 29.68,29.68 0 0 1 -19.88,22.76 104.07,104.07 0 0 0 -3.29,-13.49 c 0,0 19.47,-25.15 19.77,-20.06 0.07,1.93 1.59,6.21 3.4,10.79 z"
         opacity="0.1"
         id="path673" />
      <path
         d="m 873.10996,292.79997 2.52,-3.55 c 0,0 1.67,10.18 7.81,5.69 6.14,-4.49 6.44,33.79 6.44,33.79 l -6.59,98.53 -47.62,-2.85 1.35,-47.61 5.39,-24 13.33,-34.89 7.93,-11.53 z"
         opacity="0.1"
         id="path675" />
      <path
         d="m 889.87996,329.33997 -6,89.09 -0.63,9.44 -26.55,-1.59 -1,-0.06 -20,-1.2 1.35,-47.62 5.39,-24 13.33,-34.89 7.93,-11.53 9.44,-13.63 2.52,-3.54 c 0,0 1.67,10.18 7.81,5.69 l 0.13,-0.09 v 0 c 6,-3.8 6.28,33.93 6.28,33.93 z"
         fill="#1d2366"
         id="path677" />
      <path
         d="m 843.10996,345.05997 c 0,0 -2.39,5 -7.19,4.19 -4.8,-0.81 -4.79,18 -4.79,18 0,0 -3.19,3 -5.39,0.4 -2.2,-2.6 -8,6.19 -8,6.19 l -36.34,1.6 c 0,0 16.17,7.39 13,29.75 0,0 54.9,-3.4 56.7,-8.59 1.8,-5.19 -7.99,-51.54 -7.99,-51.54 z"
         fill="#ffffff"
         id="path679" />
      <path
         d="m 843.10996,345.05997 c 0,0 -2.39,5 -7.19,4.19 -4.8,-0.81 -4.79,18 -4.79,18 0,0 -3.19,3 -5.39,0.4 -2.2,-2.6 -8,6.19 -8,6.19 l -36.34,1.6 c 0,0 16.17,7.39 13,29.75 0,0 54.9,-3.4 56.7,-8.59 1.8,-5.19 -7.99,-51.54 -7.99,-51.54 z"
         opacity="0.03"
         id="path681" />
      <polygon
         points="856.32,404.53 777.66,389.76 787.24,397.94 866.1,414.51 "
         fill="#ffffff"
         id="polygon683"
         transform="translate(-61.92004,0.65997)" />
      <path
         d="m 873.25996,295.94997 c -1.31,2 -5.06,12.24 -8.19,21.18 -2.61,7.45 -4.79,14 -4.79,14 0,0 -5.09,33.14 -7.69,39.13 -2.6,5.99 -1.19,29.35 -1.19,29.35 l -9.69,57.69 c 0,0 -4.39,29.75 -11.17,47.52 -6.69,17.49 -14.14,25.69 -14.37,25.95 3,-4.06 19.35,-84 19.35,-84 l 5.4,-100.82 c 0,0 0.79,-9.58 1.59,-17.77 0.8,-8.19 17,-19.37 17,-19.37 l 15.62,-22.21 c 1.57,2.1 0.52,5.76 -1.87,9.35 z"
         fill="#ffffff"
         id="path685" />
      <path
         d="m 832.52996,425.51997 c 0,0 -23,-1 -34.14,-14.38 -11.14,-13.38 25.75,-5.34 25.75,-5.34 l 9.59,2.2 z"
         fill="#ffb0b1"
         id="path687" />
      <path
         d="m 939.93996,578.64997 a 29.14,29.14 0 0 0 -0.58,13.39 c -25.09,1.78 -51.93,-5 -51.93,-5 -5,4.6 -18.17,11.38 -18.17,11.38 l -7.18,-89 c -4.59,-12 -6.39,-74.87 -6.39,-74.87 0,0 0.41,-3.29 1,-8.22 0,-0.12 0,-0.25 0.05,-0.37 1.79,-13.77 5.34,-39.62 7.08,-43.11 2.4,-4.8 -7.38,-17.57 -7.38,-17.57 l 4.45,-37.95 0.54,-4.58 c 9.38,-4.19 16.57,-17.57 16.57,-17.57 l 5.52,-9.67 v 0 c 6,-3.85 6.31,33.88 6.31,33.88 l -6,89.09 19.88,-5.49 c 0,0 39.62,154.28 36.23,165.66 z"
         opacity="0.1"
         id="path689" />
      <path
         d="m 965.68996,584.79997 c -27.35,13.58 -77.06,1 -77.06,1 -5,4.6 -18.17,11.38 -18.17,11.38 l -7.19,-89 c -4.58,-12 -6.38,-74.87 -6.38,-74.87 0,0 5.78,-46.91 8.18,-51.7 0.7,-1.4 0.36,-3.48 -0.47,-5.72 a 72.38,72.38 0 0 1 -4.38,-33.49 l 1.92,-16.31 0.53,-4.57 c 9.39,-4.2 16.58,-17.58 16.58,-17.58 l 5,-8.76 9.2,-16.14 4.36,-7.64 0.74,0.67 5.65,5.12 c 0,0 2.4,2 6,5 7.83,6.6 21.36,18.22 28.34,25.33 6.14,6.26 8.08,30.61 8.64,48.94 0.37,12.07 0.15,21.53 0.15,21.53 -6.19,10.19 10,92 10,92 3.77,15.81 8.36,114.81 8.36,114.81 z"
         fill="#ffffff"
         id="path691" />
      <path
         d="m 913.18996,303.73997 c 0,0 -18.77,35.73 -16.59,49.31 2.18,13.58 8.38,28.95 5.39,32.54 a 11.05,11.05 0 0 1 -8.79,4.39 c -3,0.2 -11,5.79 -11,6.39 0,0.6 -7.39,0.6 -14,3.4 -6.61,2.8 -16.37,4.39 -16.37,4.39 0,0 -19,-0.6 -20.77,1.2 -1.77,1.8 -3.59,12.57 0.2,21.16 3.79,8.59 8,15 11.18,16.17 3.18,1.17 23.36,-5.59 39.73,-7.19 16.37,-1.6 34.14,-14.57 34.14,-14.57 0,0 19.57,-7 23,-18.77 3.43,-11.77 -4.19,-76.46 -4.19,-76.46 0,0 -5.76,-30.15 -21.93,-21.96 z"
         opacity="0.03"
         id="path693" />
      <path
         d="m 910.78996,300.73997 c 0,0 -18.77,35.74 -16.57,49.31 2.2,13.57 8.38,28.95 5.38,32.55 a 11,11 0 0 1 -8.78,4.39 c -3,0.2 -11,5.79 -11,6.39 0,0.6 -7.39,0.6 -14,3.39 -6.61,2.79 -16.37,4.39 -16.37,4.39 0,0 -19,-0.6 -20.76,1.2 -1.76,1.8 -3.6,12.58 0.2,21.16 3.8,8.58 8,15 11.18,16.17 3.18,1.17 23.36,-5.59 39.73,-7.18 16.37,-1.59 34.14,-14.58 34.14,-14.58 0,0 19.56,-7 22.95,-18.76 3.39,-11.76 -4.19,-76.47 -4.19,-76.47 0,0 -5.74,-30.14 -21.91,-21.96 z"
         opacity="0.03"
         id="path695" />
      <path
         d="m 912.59996,301.93997 c 0,0 -18.77,35.74 -16.57,49.31 2.2,13.57 8.38,28.95 5.39,32.54 a 11,11 0 0 1 -8.79,4.4 c -3,0.2 -11,5.79 -11,6.38 0,0.59 -7.38,0.6 -14,3.4 -6.62,2.8 -16.37,4.39 -16.37,4.39 0,0 -19,-0.6 -20.77,1.2 -1.77,1.8 -3.59,12.58 0.2,21.16 3.79,8.58 8,15 11.18,16.17 3.18,1.17 23.36,-5.59 39.73,-7.19 16.37,-1.6 34.14,-14.57 34.14,-14.57 0,0 19.57,-7 23,-18.77 3.43,-11.77 -4.14,-76.46 -4.14,-76.46 0,0 -5.84,-30.1 -22,-21.96 z"
         fill="#ffffff"
         id="path697" />
      <path
         d="m 912.18996,397.79997 c 0,0 -15,-3 -9.78,2 5.22,5 5.19,9.38 11.58,9.18 6.39,-0.2 -1.8,-11.18 -1.8,-11.18 z"
         opacity="0.1"
         id="path699" />
      <path
         d="m 937.53996,505.37997 c 0,0 -6.78,4.59 6.19,15.17 12.97,10.58 -6.19,-15.17 -6.19,-15.17 z"
         opacity="0.1"
         id="path701" />
      <path
         d="m 924.59996,543.10997 c 0,0.6 -2.4,22 6.58,27.35 8.98,5.35 -6.58,-27.35 -6.58,-27.35 z"
         opacity="0.1"
         id="path703" />
      <path
         d="m 782.01996,375.38997 c -7.24,0.25 -22.88,2.46 -14.77,17.59 7.17,13.39 19.22,4.44 26,-2.35 a 25.55,25.55 0 0 0 -11.23,-15.24 z"
         fill="#ffb0b1"
         id="path705" />
      <path
         d="M 793.98996,389.79997 Z"
         fill="#ffb0b1"
         id="path707" />
      <path
         d="m 793.33996,390.50997 0.3,-0.31 z"
         fill="#ffb0b1"
         id="path709" />
      <path
         d="m 910.19996,282.79997 c -7.68,5.25 -14.12,9.68 -15.38,10.6 -3.44,2.55 -10,17.52 -14.23,25.16 -3.37,6.15 -14.32,7.73 -18.45,8.12 l 0.53,-4.57 c 9.39,-4.2 16.58,-17.58 16.58,-17.58 l 18.56,-32.54 6.39,5.81 c 0,0 2.4,2 6,5 z"
         opacity="0.1"
         id="path711" />
      <path
         d="m 910.19996,282.19997 c -7.68,5.25 -14.12,9.68 -15.38,10.61 -3.44,2.54 -10,17.51 -14.23,25.15 -3.37,6.15 -14.32,7.73 -18.45,8.12 l 0.53,-4.57 c 9.39,-4.2 16.58,-17.58 16.58,-17.58 l 18.56,-32.54 6.39,5.79 c 0,0 2.4,1.98 6,5.02 z"
         fill="#dce7ff"
         id="path713" />
      <path
         d="m 895.41996,256.71997 a 29.61,29.61 0 0 1 -5.22,16.81 29.66,29.66 0 1 1 5.22,-16.81 z"
         fill="#ffb0b1"
         id="path715" />
      <path
         d="m 947.17996,356.46997 a 26.36,26.36 0 0 1 -9.57,-10.28 c -1.67,-3.3 -2.78,-7.11 -5.63,-9.45 -2.57,-2.1 -6,-2.61 -9.2,-3.55 -10.52,-3.11 -19.34,-12.71 -19.67,-23.67 -0.16,-5.16 1.45,-10.31 0.72,-15.42 a 17.08,17.08 0 0 0 -3.34,-7.95 27.37,27.37 0 0 0 -2.89,-3.11 c -1.4,-1.32 -2.87,-2.6 -4.15,-4 a 15.53,15.53 0 0 1 -2.1,-2.85 13.71,13.71 0 0 1 -1.15,-2.65 c -2,-6.12 -0.18,-13.38 -2.38,-19.57 l -0.12,-0.34 c -0.83,-2.2 -2.52,-4.4 -4.87,-4.57 -2.35,-0.17 -4.36,1.78 -6.6,2.65 -4.69,1.82 -9.75,-1.28 -13.66,-4.44 -3.91,-3.16 -8.32,-6.77 -13.29,-6.07 -3.29,0.47 -5.89,2.71 -8.92,3.87 a 12.5,12.5 0 0 1 -2.11,0.61 29.65,29.65 0 0 1 57.17,11.05 29.35,29.35 0 0 1 -0.65,6.19 c 0.05,0.14 0.1,0.27 0.16,0.41 1.16,3 2.47,6.08 3.62,8.74 l 5.65,5.12 c 0,0 2.4,2 6,5 7.83,6.6 21.36,18.22 28.34,25.33 6.14,6.28 8.06,30.62 8.64,48.95 z"
         opacity="0.1"
         id="path717" />
      <path
         d="m 840.00996,226.79997 c 1.43,-2.91 2.14,-6.17 3.85,-8.93 2.51,-4 6.89,-6.56 11.39,-8.11 11.75,-4.05 36.58,-9.93 44,0 1.46,2 2.67,4.22 4.69,5.6 1.54,1.05 3.4,1.5 5.09,2.29 4.73,2.22 7.75,7.06 9.36,12 1.61,4.94 2.09,10.24 3.27,15.33 1.51,6.53 4.16,12.72 6.8,18.87 3.11,7.26 6.41,14.79 12.41,19.92 8.19,7 10,16.91 17.6,24.59 9,9.12 8.71,24.17 4.07,36.12 -0.61,1.57 -1.3,3.21 -1.06,4.88 0.24,1.67 1.48,3.19 2.65,4.52 l 4.92,5.55 c -11.64,2.81 -24.81,-3.27 -30.23,-13.94 -1.67,-3.3 -2.78,-7.1 -5.64,-9.45 -2.56,-2.1 -6,-2.6 -9.19,-3.54 -10.52,-3.12 -19.34,-12.73 -19.67,-23.69 -0.16,-5.15 1.45,-10.3 0.72,-15.4 a 17,17 0 0 0 -3.35,-8 c -2.75,-3.59 -6.9,-6 -9.14,-10 -3.79,-6.69 -0.91,-15.38 -3.64,-22.56 -0.84,-2.2 -2.52,-4.4 -4.87,-4.57 -2.35,-0.17 -4.36,1.78 -6.61,2.65 -4.68,1.82 -9.74,-1.27 -13.65,-4.44 -3.91,-3.17 -8.32,-6.77 -13.3,-6.06 -3.29,0.46 -5.88,2.7 -8.91,3.87 -2.24,0.86 -6.78,1.63 -8.74,-0.26 -4.14,-3.81 5.45,-13.68 7.18,-17.24 z"
         fill="#591d4b"
         id="path719" />
      <path
         d="m 941.59996,342.18997 c -1.68,-3.3 -2.78,-7.1 -5.64,-9.44 -2.56,-2.1 -6,-2.61 -9.2,-3.55 -10.51,-3.11 -19.33,-12.72 -19.67,-23.68 -0.16,-5.15 1.45,-10.31 0.73,-15.41 a 17.1,17.1 0 0 0 -3.35,-7.95 c -2.76,-3.59 -6.91,-6 -9.14,-10 -3.79,-6.68 -0.91,-15.37 -3.65,-22.56 -0.83,-2.19 -2.52,-4.39 -4.86,-4.57 -2.34,-0.18 -4.37,1.79 -6.61,2.66 -4.68,1.82 -9.75,-1.28 -13.65,-4.44 -3.9,-3.16 -8.33,-6.77 -13.3,-6.07 -3.29,0.47 -5.89,2.71 -8.91,3.87 -2.24,0.86 -6.79,1.64 -8.75,-0.25 -4.12,-4 5.47,-13.85 7.19,-17.39 1.43,-2.92 2.14,-6.17 3.86,-8.93 0.09,-0.15 0.19,-0.3 0.29,-0.45 a 15.88,15.88 0 0 0 -3.29,3.74 c -1.71,2.76 -2.42,6 -3.85,8.93 -1.73,3.54 -11.32,13.42 -7.19,17.39 2,1.9 6.5,1.12 8.74,0.26 3,-1.17 5.62,-3.41 8.91,-3.87 5,-0.71 9.4,2.9 13.3,6.06 3.9,3.16 9,6.26 13.66,4.44 2.24,-0.87 4.2,-2.83 6.6,-2.65 2.4,0.18 4,2.37 4.87,4.57 2.73,7.18 -0.15,15.87 3.64,22.56 2.24,3.93 6.39,6.39 9.14,10 a 17,17 0 0 1 3.35,8 c 0.73,5.1 -0.88,10.25 -0.72,15.4 0.33,11 9.15,20.57 19.67,23.69 3.17,0.94 6.63,1.44 9.19,3.54 2.87,2.35 4,6.15 5.64,9.45 5.42,10.67 18.59,16.75 30.23,13.94 l -2.32,-2.62 c -10.09,0.15 -20.3,-5.59 -24.91,-14.67 z"
         opacity="0.1"
         id="path721" />
      <path
         d="m 872.65996,296.54997 c -1.31,2 -5.06,12.24 -8.19,21.18 -2.93,-1.14 -5.59,-8.41 -5.59,-8.41 l 15.62,-22.22 c 1.6,2.2 0.55,5.85 -1.84,9.45 z"
         opacity="0.1"
         id="path723" />
      <path
         d="m 873.25996,295.94997 c -1.31,2 -5.06,12.24 -8.19,21.18 -2.93,-1.13 -5.59,-8.41 -5.59,-8.41 l 15.62,-22.21 c 1.6,2.19 0.55,5.85 -1.84,9.44 z"
         fill="#dce7ff"
         id="path725" />
      <path
         d="m 782.43996,398.10997 -8.66,-27.31 a 2.55,2.55 0 0 1 1.66,-3.21 v 0 a 2.56,2.56 0 0 1 3.2,1.66 l 8.66,27.28 -0.86,5.71 z"
         fill="#be8b87"
         id="path727" />
      <path
         d="m 774.59996,368.39997 v 0 a 2.56,2.56 0 0 1 3.21,1.66 l 8.66,27.28 -0.65,4.28 0.63,0.66 0.86,-5.71 -8.71,-27.28 a 2.56,2.56 0 0 0 -3.2,-1.66 v 0 a 2.56,2.56 0 0 0 -1.33,1 3.48,3.48 0 0 1 0.53,-0.23 z"
         fill="#ffffff"
         opacity="0.1"
         id="path729" />
      <polygon
         points="826.6,404.85 825.18,403.37 822.6,400.68 827.46,399.14 826.75,403.82 "
         fill="#efc8c4"
         id="polygon731"
         transform="translate(-40.160036,-2.5700342)" />
      <path
         d="m 785.01996,400.79997 a 1,1 0 0 1 0.31,-0.26 0.44,0.44 0 0 1 0.47,0 1.24,1.24 0 0 1 0.17,0.27 0.86,0.86 0 0 0 0.62,0.41 l -0.15,1 z"
         fill="#727a9c"
         id="path733" />
      <path
         d="m 773.72996,380.49997 c 0,0 17.37,-0.1 13.28,7.29 -4.09,7.39 -10.48,8.28 -10.48,8.28 z"
         fill="#ffb0b1"
         id="path735" />
    </g>
  </g>
</svg>
