<?xml version="1.0" encoding="iso-8859-1"?>
<!-- Generator: Adobe Illustrator 19.0.0, SVG Export Plug-In . SVG Version: 6.00 Build 0)  -->
<svg version="1.1" id="Capa_1" xmlns="http://www.w3.org/2000/svg" xmlns:xlink="http://www.w3.org/1999/xlink" x="0px" y="0px"
	 viewBox="0 0 512 512" style="enable-background:new 0 0 512 512;" xml:space="preserve">
<path style="fill:#84DBFF;" d="M256.005,484.779l83.413-159.125c-41.749-0.149-125.045-0.043-166.795,0.085L256.005,484.779z"/>
<path style="fill:#40596B;" d="M373.147,299.552c-48.544,33.547-187.435,33.547-235.979,0
	c-45.707-31.563-27.627-103.904-23.872-155.872c5.312-73.877,66.624-133.163,140.683-133.504c0.768-0.021,1.557-0.021,2.357,0
	c74.059,0.331,135.371,59.627,140.683,133.504C400.773,195.637,418.864,267.989,373.147,299.552"/>
<path style="fill:#F8B64C;" d="M163.835,190.304c4.224,18.144,2.005,34.187-5.003,35.797c-6.976,1.632-16.085-11.755-20.309-29.899
	s-2.005-34.187,5.003-35.808C150.501,158.763,159.611,172.16,163.835,190.304"/>
<rect x="254.875" y="370.507" style="fill:#FFD15C;" width="0.021" height="0.043"/>
<path style="fill:#F8B64C;" d="M345.755,190.304c-4.245,18.144-2.005,34.187,4.981,35.797c6.997,1.632,14.859-12.085,20.331-29.899
	c3.253-10.624,1.771-32.352-5.003-35.808C359.675,157.131,349.989,172.16,345.755,190.304"/>
<path style="fill:#FFD15C;" d="M354.96,243.061c-29.376,93.237-99.808,100.32-99.808,100.32s-70.421-7.083-99.787-100.32
	c0,0-15.733-48.64-2.539-89.173c0,0,8.064-69.163,102.336-69.163c94.293,0,102.357,69.163,102.357,69.163
	C370.693,194.421,354.96,243.061,354.96,243.061"/>
<path style="fill:#F8B64C;" d="M326.736,325.44l-0.021-27.083c-32.149,41.045-71.563,45.035-71.563,45.035s-39.755-4.021-72-45.589
	v27.936c-34.624-0.149-36.832,0.288-36.832,0.288c12.373,25.707,48.459,67.477,109.579,68.747h0.853
	c6.933-0.213,13.856-0.96,20.683-2.229h0.544l4.789-1.077c53.984-12.587,78.229-55.947,82.912-65.451
	C365.36,325.92,348.613,325.44,326.736,325.44"/>
<g style="opacity:0.1;">
	<g>
		<path style="fill:#40596B;" d="M365.691,326.027c-0.331-0.107-17.088-0.576-38.955-0.576v-27.083
			c-32.171,41.035-71.584,45.013-71.584,45.013s-12.267-1.248-28.683-9.472c-3.211-0.981-6.731-2.549-10.624-5.056
			c-0.064,0-0.128-0.021-0.171-0.043l62.144,63.733h0.171l4.789-1.067C336.752,378.901,361.008,335.531,365.691,326.027"/>
	</g>
</g>
<path style="fill:#54C0EB;" d="M487.525,443.627c-8.853-51.936-45.269-93.312-92.683-110.496
	c-25.355-9.195-36.565-7.349-55.349-7.627l-83.488,159.275l-83.499-159.275c-18.795,0.267-29.984-1.568-55.339,7.627
	c-47.413,17.184-83.829,58.56-92.683,110.496L14.565,512h240.267h2.336h240.267L487.525,443.627z"/>
<path style="fill:#40596B;" d="M131.088,127.467c0,0,12.789,3.477,18.603,33.707c0,0,9.312-20.917,13.963-52.309
	c0,0,6.976-46.496,10.453-43.008c0,0,22.08,49.995,146.475,81.376c0,0,101.397,12.715,6.165,151.125
	c31.893,0,57.771-25.867,57.771-57.76V124.544C384.528,49.76,323.877,0,249.093,0S113.648,49.76,113.648,124.544v19.189
	L131.088,127.467z"/>
<g>
</g>
<g>
</g>
<g>
</g>
<g>
</g>
<g>
</g>
<g>
</g>
<g>
</g>
<g>
</g>
<g>
</g>
<g>
</g>
<g>
</g>
<g>
</g>
<g>
</g>
<g>
</g>
<g>
</g>
</svg>
